<svg fill="#000000" width="112px" height="112px" viewBox="0 0 24 24" xmlns="http://www.w3.org/2000/svg" transform="rotate(-45)"><g id="SVGRepo_bgCarrier" stroke-width="0"></g><g id="SVGRepo_tracerCarrier" stroke-linecap="round" stroke-linejoin="round" stroke="#CCCCCC" stroke-width="0.144"></g><g id="SVGRepo_iconCarrier"><path d="M23,12a5.006,5.006,0,0,1-5,5H16a1,1,0,0,1,0-2h2a3,3,0,0,0,0-6H16a1,1,0,0,1,0-2h2A5.006,5.006,0,0,1,23,12ZM6,17H8a1,1,0,0,0,0-2H6A3,3,0,0,1,6,9H8A1,1,0,0,0,8,7H6A5,5,0,0,0,6,17Zm1-5a1,1,0,0,0,1,1h8a1,1,0,0,0,0-2H8A1,1,0,0,0,7,12Z"></path></g></svg>